#tb 0: 1/25
0,          0,          0,        1,   271040, 0xffe62f5f
0,          1,          1,        1,   271040, 0xcf502f5f
0,          2,          2,        1,   271040, 0x72612f5f
0,          3,          3,        1,   271040, 0x41cb2f5f
